<?xml version="1.0" standalone="no"?>
<!DOCTYPE svg PUBLIC "-//W3C//DTD SVG 20010904//EN"
 "http://www.w3.org/TR/2001/REC-SVG-20010904/DTD/svg10.dtd">
<svg version="1.0" xmlns="http://www.w3.org/2000/svg"
 width="512.000000pt" height="512.000000pt" viewBox="0 0 512.000000 512.000000"
 preserveAspectRatio="xMidYMid meet">
<metadata>
Created by potrace 1.14, written by Peter Selinger 2001-2017
</metadata>
<g transform="translate(0.000000,512.000000) scale(0.100000,-0.100000)"
fill="#000000" stroke="none">
<path d="M860 3399 c-80 -99 -152 -188 -160 -197 -8 -9 -31 -37 -50 -62 -19
-25 -37 -47 -40 -50 -3 -3 -62 -75 -130 -160 -69 -85 -132 -162 -140 -170 -9
-8 -22 -25 -30 -37 -8 -11 -61 -78 -117 -147 -57 -69 -103 -129 -103 -133 1
-10 76 -63 89 -63 5 0 11 -4 13 -8 2 -5 64 -50 138 -101 74 -51 198 -135 275
-188 77 -53 133 -87 125 -76 -8 12 -54 71 -102 132 -81 105 -86 114 -77 143 4
17 6 35 3 39 -11 19 12 6 118 -66 l110 -75 32 22 c17 12 63 48 103 80 69 56
85 66 81 51 -1 -5 3 -18 10 -30 11 -21 1 -35 -150 -204 -90 -100 -181 -203
-203 -229 -98 -112 -281 -315 -287 -318 -5 -2 -8 -8 -8 -14 0 -9 37 15 85 55
6 4 98 76 205 159 107 83 209 161 225 174 17 14 35 28 40 32 32 24 467 361
503 389 l43 35 -82 156 c-45 87 -95 181 -111 210 -16 30 -50 94 -74 143 -25
49 -49 89 -53 89 -4 0 -54 -57 -111 -127 -58 -69 -110 -131 -115 -137 -6 -6
-31 -36 -56 -67 -49 -61 -44 -61 -109 -6 -32 28 -33 29 -21 70 7 23 16 51 20
62 8 18 218 645 225 670 2 6 6 24 10 40 4 17 12 40 18 52 32 66 -13 22 -142
-138z"/>
<path d="M4325 3390 c-4 -6 4 -29 18 -52 l25 -42 -25 -39 c-33 -52 -28 -71 21
-72 22 -1 45 5 53 13 12 12 16 13 23 2 12 -19 147 -22 166 -3 12 12 16 12 28
1 11 -11 120 -17 169 -9 4 0 7 34 7 74 l1 72 25 -65 c13 -36 32 -70 40 -77 14
-10 72 -11 78 -1 14 20 66 174 64 186 -2 12 -16 18 -45 20 -37 3 -42 0 -51
-25 l-9 -28 -13 27 -13 27 -123 0 c-68 0 -126 -5 -129 -10 -4 -5 -13 -5 -25 1
-10 5 -50 10 -89 10 -38 0 -73 -5 -76 -10 -4 -7 -12 -7 -25 0 -24 13 -87 13
-95 0z m90 -30 c3 -11 9 -20 13 -20 4 0 13 9 20 20 7 11 23 20 37 20 30 0 30
-2 4 -48 l-22 -38 26 -41 c14 -22 24 -43 21 -45 -6 -7 -64 3 -64 11 0 3 -4 13
-9 20 -8 12 -13 11 -28 -8 -16 -20 -73 -37 -73 -22 0 4 12 23 26 44 26 39 26
65 -1 87 -25 21 -18 40 14 40 21 0 32 -6 36 -20z m179 14 c9 -3 16 -12 16 -20
0 -20 9 -17 29 7 11 14 25 20 43 17 l27 -3 -29 -42 c-16 -23 -25 -43 -21 -45
7 -3 51 -71 51 -80 0 -6 -60 -4 -60 2 0 3 -7 14 -15 24 -14 18 -15 18 -32 -3
-16 -20 -74 -37 -73 -22 1 3 14 24 29 46 l29 40 -30 42 -29 43 25 0 c13 0 31
-3 40 -6z m199 -66 c-2 -106 -1 -103 -28 -103 -14 0 -25 2 -26 5 -3 18 -4 147
-1 158 3 7 16 12 30 10 25 -3 26 -5 25 -70z m93 45 c4 -16 11 -37 17 -47 9
-18 12 -15 27 25 14 35 23 45 44 47 24 3 26 1 20 -22 -12 -51 -53 -139 -66
-146 -21 -10 -40 -6 -49 10 -9 18 -59 148 -59 155 0 3 13 5 30 5 24 0 31 -5
36 -27z m-326 -53 c0 -3 -8 -17 -18 -32 l-18 -27 -17 29 c-17 28 -17 31 -1 56
l18 26 18 -24 c9 -12 18 -25 18 -28z m155 0 c1 -42 -8 -51 -23 -23 -6 11 -6
25 1 40 15 34 22 28 22 -17z"/>
<path d="M2357 3087 c-41 -10 -88 -51 -157 -137 -25 -30 -49 -60 -55 -66 -5
-7 -17 -20 -25 -31 -8 -10 -37 -45 -64 -76 -46 -55 -49 -57 -65 -40 -9 10 -72
85 -139 166 -126 152 -167 187 -214 187 l-28 0 0 -434 c0 -457 1 -470 47 -522
28 -32 120 -74 125 -56 0 4 2 144 4 312 1 168 3 310 3 315 1 10 7 4 61 -65 14
-17 30 -37 35 -43 6 -7 26 -32 45 -57 19 -25 44 -56 56 -68 l21 -24 39 49 c21
26 41 50 45 53 3 3 31 39 64 80 32 41 61 78 64 82 3 4 6 -87 6 -202 0 -234 -4
-225 70 -191 47 22 79 54 95 96 8 20 11 135 11 354 0 178 -2 325 -3 326 -2 1
-20 -3 -41 -8z"/>
<path d="M2497 3092 c-2 -4 -3 -153 -2 -332 1 -284 3 -329 18 -355 34 -62 70
-90 125 -98 l32 -5 0 326 c0 309 -1 328 -21 368 -11 24 -35 53 -54 64 -39 24
-93 42 -98 32z"/>
<path d="M4227 3092 c-2 -4 -3 -182 -3 -397 l1 -390 30 3 c62 7 128 70 141
135 2 12 4 82 5 156 l1 134 79 -84 c253 -267 315 -326 357 -336 23 -6 44 -8
47 -5 3 3 5 182 5 399 l0 393 -27 -6 c-49 -12 -67 -21 -96 -48 -48 -45 -57
-81 -57 -237 l0 -141 -123 128 c-68 71 -150 157 -182 192 -33 35 -73 72 -90
82 -33 20 -83 33 -88 22z"/>
<path d="M2845 3067 c-27 -15 -47 -37 -63 -69 -23 -45 -23 -55 -23 -295 0
-136 0 -282 0 -324 l1 -77 244 0 c212 1 250 3 284 18 48 22 91 76 99 124 l5
35 -198 0 c-110 0 -213 0 -230 0 l-31 1 -1 288 c0 158 -1 295 -1 305 -1 24
-37 22 -86 -6z"/>
<path d="M3588 2696 l-197 -394 157 2 c195 3 228 17 267 109 27 64 24 67 -59
67 l-74 0 51 105 c28 58 53 105 57 105 3 0 42 -76 88 -169 97 -197 112 -210
232 -216 39 -2 70 -2 70 1 0 8 -380 768 -388 776 -4 4 -96 -170 -204 -386z"/>
<path d="M1907 2174 c-9 -36 -7 -84 3 -84 5 0 10 12 10 28 l1 27 22 -27 c13
-16 26 -28 30 -28 4 0 7 23 7 51 0 31 -4 48 -10 44 -5 -3 -10 -16 -10 -28 -1
-21 -2 -20 -24 7 -21 26 -24 27 -29 10z"/>
<path d="M2063 2179 c-18 -22 -43 -89 -33 -89 5 0 12 5 15 10 3 6 15 10 26 10
10 0 19 -4 19 -10 0 -5 5 -10 10 -10 14 0 12 19 -8 64 -14 31 -20 36 -29 25z
m17 -39 c0 -5 -4 -10 -10 -10 -5 0 -10 5 -10 10 0 6 5 10 10 10 6 0 10 -4 10
-10z"/>
<path d="M2145 2179 c-4 -5 1 -9 9 -9 12 0 16 -10 16 -40 0 -22 5 -40 10 -40
6 0 10 16 10 35 0 22 6 38 18 44 19 12 19 11 -25 16 -18 2 -35 -1 -38 -6z"/>
<path d="M2267 2183 c-4 -3 -7 -26 -7 -50 0 -31 4 -43 13 -40 8 2 11 19 9 48
-4 48 -5 52 -15 42z"/>
<path d="M2354 2180 c-30 -12 -37 -47 -13 -71 33 -33 79 -16 79 31 0 19 -7 33
-19 40 -22 11 -19 11 -47 0z m41 -41 c0 -28 -32 -39 -41 -15 -9 24 2 45 23 42
12 -2 18 -11 18 -27z"/>
<path d="M2539 2185 c-3 -5 -4 -21 -3 -35 l1 -24 -21 27 c-31 39 -44 34 -44
-18 0 -25 4 -45 9 -45 5 0 9 12 9 28 l1 27 25 -29 c14 -15 27 -26 30 -23 3 3
4 27 2 53 -2 27 -6 45 -9 39z"/>
<path d="M2738 2177 c-3 -6 -4 -28 -3 -47 0 -29 5 -36 24 -38 13 -2 28 1 34 7
8 8 4 11 -15 11 -23 0 -26 3 -23 35 2 35 -9 56 -17 32z"/>
<path d="M2933 2178 c-17 -8 -23 -20 -23 -44 0 -36 23 -51 61 -39 25 8 17 19
-14 20 -13 0 -23 7 -25 19 -5 23 16 38 43 29 17 -5 18 -4 6 11 -15 18 -18 19
-48 4z"/>
<path d="M3032 2151 c6 -82 70 -84 76 -2 2 24 -1 41 -7 41 -6 0 -11 -18 -11
-41 0 -33 -3 -40 -17 -37 -12 2 -19 14 -21 33 -6 50 -24 56 -20 6z"/>
<path d="M3168 2184 c-5 -4 -8 -27 -8 -51 0 -43 0 -43 35 -43 19 0 35 5 35 10
0 6 -11 10 -24 10 -22 0 -25 5 -28 41 -2 22 -6 37 -10 33z"/>
<path d="M3250 2179 c0 -4 7 -9 15 -13 9 -3 15 -19 15 -41 0 -19 5 -35 11 -35
6 0 10 10 9 23 -4 43 0 57 17 57 9 0 13 3 9 7 -9 10 -76 11 -76 2z"/>
<path d="M3367 2183 c-2 -4 -3 -23 -2 -41 2 -43 31 -64 62 -44 16 10 25 64 13
82 -5 8 -10 11 -11 5 -1 -5 -3 -19 -4 -30 -1 -11 -3 -26 -3 -32 -1 -7 -9 -13
-17 -13 -8 0 -16 6 -16 13 -1 6 -3 22 -4 35 -3 26 -11 37 -18 25z"/>
<path d="M3496 2181 c-3 -4 -5 -26 -4 -49 0 -43 11 -55 22 -26 6 15 8 15 26
-1 11 -10 23 -15 27 -11 4 4 1 11 -6 15 -10 7 -11 13 -1 31 6 12 8 26 3 30
-11 12 -62 20 -67 11z m48 -26 c4 -10 -1 -15 -14 -15 -20 0 -26 11 -13 23 10
11 20 8 27 -8z"/>
<path d="M3626 2143 c-10 -24 -15 -47 -11 -51 4 -4 10 -1 12 6 3 6 15 12 28
12 13 0 25 -6 28 -12 2 -7 7 -10 11 -7 8 7 -26 87 -39 93 -6 2 -19 -16 -29
-41z m34 -3 c0 -5 -5 -10 -11 -10 -5 0 -7 5 -4 10 3 6 8 10 11 10 2 0 4 -4 4
-10z"/>
<path d="M3749 2190 c-1 -3 -2 -26 -4 -52 l-2 -48 33 0 c19 0 34 5 34 10 0 6
-11 10 -25 10 -22 0 -25 4 -20 28 2 15 0 34 -5 42 -5 8 -10 13 -11 10z"/>
<path d="M3921 2167 c-9 -24 -2 -77 10 -77 5 0 9 9 9 20 0 13 7 20 20 20 11 0
20 5 20 11 0 6 -9 9 -20 6 -13 -3 -20 0 -20 9 0 8 3 13 8 13 19 -3 42 2 42 9
0 5 -14 8 -31 8 -21 0 -33 -6 -38 -19z"/>
<path d="M4041 2176 c-5 -6 -9 -28 -9 -48 0 -36 1 -38 34 -38 19 0 34 5 34 10
0 6 -11 10 -25 10 -14 0 -25 5 -25 10 0 6 11 10 25 10 14 0 25 5 25 10 0 6
-12 10 -26 10 -15 0 -23 4 -18 11 3 6 15 9 25 6 11 -3 19 0 19 7 0 15 -48 16
-59 2z"/>
<path d="M4156 2182 c-14 -13 -5 -44 14 -49 11 -3 20 -10 20 -15 0 -6 -9 -8
-20 -5 -26 7 -36 -10 -12 -18 45 -14 78 28 37 47 -26 12 -36 34 -10 25 8 -4
17 -2 20 3 4 6 3 10 -2 11 -4 0 -16 2 -25 4 -9 2 -19 0 -22 -3z"/>
<path d="M4254 2178 c-5 -8 3 -12 19 -9 4 0 7 -17 7 -39 0 -22 5 -40 10 -40 6
0 10 18 10 40 0 31 4 40 17 40 9 0 13 3 10 7 -10 10 -67 11 -73 1z"/>
<path d="M2611 2138 c-10 -24 -17 -44 -16 -46 2 -2 12 3 24 10 17 10 25 10 41
0 29 -18 29 -16 11 33 -9 25 -22 45 -29 45 -7 0 -21 -19 -31 -42z m39 2 c0 -5
-4 -10 -10 -10 -5 0 -10 5 -10 10 0 6 5 10 10 10 6 0 10 -4 10 -10z"/>
<path d="M3877 1956 c-21 -16 -22 -27 -2 -20 11 5 9 -7 -10 -44 -14 -27 -25
-57 -25 -65 0 -8 -7 -18 -16 -21 -8 -3 -13 -10 -9 -16 4 -6 15 -6 32 1 14 5
48 10 75 11 32 0 46 4 40 10 -6 6 -33 8 -60 7 l-50 -4 14 35 c8 19 23 49 34
67 22 37 8 61 -23 39z"/>
<path d="M4226 1959 c-44 -7 -56 -17 -36 -29 9 -6 16 -6 18 0 2 6 12 10 23 10
19 0 19 -2 4 -31 -15 -28 -34 -131 -22 -119 2 3 15 34 27 70 12 36 28 72 36
80 19 19 18 4 -5 -62 -23 -66 -14 -96 18 -57 l20 24 -6 -37 c-6 -43 7 -50 34
-19 9 11 22 17 30 14 7 -3 24 2 36 10 21 14 24 13 35 -3 13 -21 25 -21 68 3
28 14 50 44 41 53 -1 2 -18 -10 -37 -26 -19 -17 -41 -30 -48 -30 -38 0 -11 85
39 121 l29 20 1 -28 1 -28 13 30 c17 38 7 49 -31 35 -27 -11 -74 -52 -74 -66
0 -20 -34 -73 -51 -77 -23 -6 -25 6 -4 23 17 15 20 30 4 30 -15 0 -39 -26 -39
-43 0 -8 -7 -20 -15 -27 -18 -15 -18 -10 -5 24 11 31 -1 41 -31 26 -19 -11
-20 -10 -14 12 4 12 15 32 24 42 13 15 13 18 1 11 -13 -8 -13 -7 -1 8 7 9 20
17 27 17 17 0 19 20 2 21 -41 4 -79 3 -112 -2z"/>
<path d="M4588 1923 c-11 -25 -23 -65 -26 -87 l-5 -41 27 24 c28 26 33 22 15
-11 -17 -32 4 -45 38 -22 15 10 39 19 53 20 39 1 53 7 72 29 17 20 17 20 11
-2 -3 -13 -2 -31 2 -40 6 -16 8 -16 25 5 11 13 24 21 30 17 6 -4 17 -2 25 5 8
6 16 7 19 2 3 -6 -1 -12 -9 -15 -8 -4 -26 -24 -40 -45 -19 -29 -23 -45 -17
-61 l8 -22 21 23 c27 29 63 122 53 138 -6 9 -13 9 -29 1 -12 -7 -21 -8 -21 -2
0 5 8 11 18 13 12 3 14 6 5 11 -8 5 -26 -6 -49 -30 -23 -24 -34 -31 -29 -18
19 51 18 55 -7 55 -16 0 -29 -9 -38 -25 -14 -27 -43 -35 -34 -10 8 20 -6 19
-22 -2 -13 -16 -13 -15 -5 7 5 14 14 24 20 23 6 -2 11 2 11 7 0 25 -31 6 -52
-32 -26 -48 -57 -68 -33 -22 17 34 6 50 -24 35 -25 -14 -27 -4 -4 28 9 14 11
21 5 17 -8 -5 -10 -2 -6 8 3 9 11 13 16 10 6 -4 7 2 3 16 -5 15 -4 20 4 16 6
-4 11 0 11 8 0 31 -21 15 -42 -31z m256 -177 c-10 -20 -21 -36 -26 -36 -9 0 1
26 22 57 21 33 23 21 4 -21z"/>
<path d="M3678 1925 c-6 -14 -19 -25 -30 -25 -16 0 -20 -6 -17 -27 1 -5 5 -7
10 -5 5 1 9 -2 9 -8 0 -5 -4 -10 -9 -10 -4 0 -8 -14 -7 -30 l1 -30 18 25 c22
30 35 32 45 6 6 -17 9 -17 33 10 15 16 23 29 18 29 -5 0 -6 7 -3 15 4 8 16 15
28 15 20 1 20 2 3 14 -10 8 -15 20 -11 30 9 23 -19 20 -34 -4 -7 -11 -18 -20
-26 -20 -9 0 -12 7 -9 20 7 28 -5 25 -19 -5z m27 -55 c-3 -5 -13 -10 -21 -10
-8 0 -12 5 -9 10 3 6 13 10 21 10 8 0 12 -4 9 -10z"/>
<path d="M3995 1890 c3 -5 8 -10 11 -10 2 0 4 5 4 10 0 6 -5 10 -11 10 -5 0
-7 -4 -4 -10z"/>
<path d="M4057 1849 l-15 -34 -1 30 -1 30 -21 -32 c-12 -18 -22 -33 -23 -33
-2 0 0 14 2 31 3 22 1 30 -7 25 -12 -8 -16 -66 -4 -66 3 0 15 7 25 17 11 9 18
11 18 5 0 -20 28 -13 35 8 8 26 35 26 35 1 0 -11 5 -23 11 -27 12 -7 59 15 59
28 0 5 -11 1 -25 -8 -27 -18 -35 -5 -10 16 25 21 17 32 -16 25 -21 -5 -34 -3
-39 6 -6 9 -13 2 -23 -22z"/>
<path d="M4923 1861 c-17 -18 -20 -28 -12 -42 13 -25 23 -24 56 7 l28 26 -32
-22 c-26 -17 -33 -18 -33 -7 0 9 5 17 11 19 6 2 10 12 8 23 -4 18 -5 18 -26
-4z"/>
</g>
</svg>
